<svg xmlns="http://www.w3.org/2000/svg" viewBox="0 0 1280 380" width="1280" height="380" role="img" aria-label="RedDuck - blockchain consulting and development partner">
  <title>RedDuck &#8212; blockchain consulting &amp; development partner</title>

  <style>
    .mono { font-family: ui-monospace, "SF Mono", SFMono-Regular, Menlo, Consolas, "Liberation Mono", monospace; }

    .grid     { animation: drift 24s linear infinite; }
    .kicker   { animation: fade .8s ease-out both; }
    .wordmark { animation: rise .9s cubic-bezier(.16,1,.3,1) .12s both; }
    .duck     { animation: rise .9s cubic-bezier(.16,1,.3,1) both, bob 3.4s ease-in-out 1.2s infinite; }
    .rule     { animation: draw 1s cubic-bezier(.16,1,.3,1) .5s both; }
    .reveal   { animation: type 2.50s steps(45) .9s both; }
    .caret    { animation: caret 2.50s steps(45) .9s both, blink 1.06s steps(2) infinite; }
    .chip     { animation: pop .55s cubic-bezier(.16,1,.3,1) both; }
    .field rect { animation: breathe 5.5s ease-in-out infinite; }

    .c1 { animation-delay: 3.50s } .c2 { animation-delay: 3.60s }
    .c3 { animation-delay: 3.70s } .c4 { animation-delay: 3.80s }
    .c5 { animation-delay: 3.90s } .c6 { animation-delay: 4.00s }
    .c7 { animation-delay: 4.10s }

    @keyframes drift  { to   { transform: translateY(-40px) } }
    @keyframes bob    { 0%,100% { transform: translateY(0) } 50% { transform: translateY(-2px) } }
    @keyframes type   { from { transform: translateX(-642px) } to { transform: translateX(0) } }
    @keyframes caret  { from { transform: translateX(-642px) } to { transform: translateX(0) } }
    @keyframes blink  { 0%,50% { opacity: 1 } 50.01%,100% { opacity: 0 } }
    @keyframes rise   { from { opacity: 0; transform: translateY(18px) } to { opacity: 1; transform: none } }
    @keyframes fade   { from { opacity: 0 } to { opacity: 1 } }
    @keyframes draw   { from { transform: scaleX(0) } to { transform: scaleX(1) } }
    @keyframes pop    { from { opacity: 0; transform: translateY(10px) } to { opacity: 1; transform: none } }
    @keyframes breathe { 0%,100% { opacity: .15 } 50% { opacity: .9 } }

    @media (prefers-reduced-motion: reduce) {
      .grid, .kicker, .wordmark, .duck, .rule, .reveal, .caret, .chip, .field rect {
        animation: none !important;
      }
      .reveal, .caret { transform: none }
    }
  </style>

  <defs>
    <pattern id="g" width="40" height="40" patternUnits="userSpaceOnUse">
      <path d="M40 0H0v40" fill="none" stroke="#1b1b1a"/>
    </pattern>
    <linearGradient id="fieldFade" x1="660" y1="0" x2="1280" y2="0" gradientUnits="userSpaceOnUse">
      <stop offset="0" stop-color="#000"/>
      <stop offset=".5" stop-color="#4a4a4a"/>
      <stop offset="1" stop-color="#fff"/>
    </linearGradient>
    <mask id="fieldMask">
      <rect x="660" y="0" width="620" height="380" fill="url(#fieldFade)"/>
    </mask>
    <linearGradient id="fadeTop" x1="0" y1="0" x2="0" y2="1">
      <stop offset="0" stop-color="#0b0b0a" stop-opacity=".85"/>
      <stop offset="1" stop-color="#0b0b0a" stop-opacity="0"/>
    </linearGradient>
    <linearGradient id="fadeBottom" x1="0" y1="0" x2="0" y2="1">
      <stop offset="0" stop-color="#0b0b0a" stop-opacity="0"/>
      <stop offset="1" stop-color="#0b0b0a" stop-opacity=".85"/>
    </linearGradient>
    <clipPath id="typeClip">
      <rect class="reveal" x="64" y="228" width="642" height="34"/>
    </clipPath>
  </defs>

  <!-- No frame and no corner brackets: the artwork runs to its own edges so the
       banner reads as a header band rather than a picture dropped into the page. -->
  <rect width="1280" height="380" fill="#0b0b0a"/>
  <g class="grid"><rect x="0" y="-40" width="1280" height="460" fill="url(#g)"/></g>
  <g class="field" mask="url(#fieldMask)">
      <rect x="681" y="1" width="38" height="38" fill="#15150f" style="animation-delay:-0.85s"/>
      <rect x="681" y="41" width="38" height="38" fill="#1e1d18" style="animation-delay:-1.20s"/>
      <rect x="681" y="81" width="38" height="38" fill="#332f29" style="animation-delay:-3.38s"/>
      <rect x="681" y="121" width="38" height="38" fill="#332f29" style="animation-delay:-3.88s"/>
      <rect x="681" y="161" width="38" height="38" fill="#282621" style="animation-delay:-3.01s"/>
      <rect x="681" y="201" width="38" height="38" fill="#332f29" style="animation-delay:-3.51s"/>
      <rect x="681" y="241" width="38" height="38" fill="#332f29" style="animation-delay:-3.62s"/>
      <rect x="681" y="281" width="38" height="38" fill="#332f29" style="animation-delay:-3.64s"/>
      <rect x="681" y="321" width="38" height="38" fill="#332f29" style="animation-delay:-3.63s"/>
      <rect x="721" y="1" width="38" height="38" fill="#15150f" style="animation-delay:-0.90s"/>
      <rect x="721" y="41" width="38" height="38" fill="#282621" style="animation-delay:-2.53s"/>
      <rect x="721" y="81" width="38" height="38" fill="#282621" style="animation-delay:-2.92s"/>
      <rect x="721" y="121" width="38" height="38" fill="#332f29" style="animation-delay:-3.64s"/>
      <rect x="721" y="161" width="38" height="38" fill="#332f29" style="animation-delay:-4.02s"/>
      <rect x="721" y="201" width="38" height="38" fill="#282621" style="animation-delay:-2.63s"/>
      <rect x="721" y="241" width="38" height="38" fill="#282621" style="animation-delay:-3.03s"/>
      <rect x="721" y="281" width="38" height="38" fill="#282621" style="animation-delay:-3.09s"/>
      <rect x="721" y="321" width="38" height="38" fill="#332f29" style="animation-delay:-3.52s"/>
      <rect x="761" y="1" width="38" height="38" fill="#282621" style="animation-delay:-2.22s"/>
      <rect x="761" y="41" width="38" height="38" fill="#282621" style="animation-delay:-2.87s"/>
      <rect x="761" y="81" width="38" height="38" fill="#282621" style="animation-delay:-3.17s"/>
      <rect x="761" y="121" width="38" height="38" fill="#282621" style="animation-delay:-3.29s"/>
      <rect x="761" y="161" width="38" height="38" fill="#282621" style="animation-delay:-3.16s"/>
      <rect x="761" y="201" width="38" height="38" fill="#332f29" style="animation-delay:-3.72s"/>
      <rect x="761" y="241" width="38" height="38" fill="#332f29" style="animation-delay:-3.68s"/>
      <rect x="761" y="281" width="38" height="38" fill="#282621" style="animation-delay:-3.25s"/>
      <rect x="761" y="321" width="38" height="38" fill="#282621" style="animation-delay:-2.61s"/>
      <rect x="801" y="1" width="38" height="38" fill="#282621" style="animation-delay:-2.70s"/>
      <rect x="801" y="41" width="38" height="38" fill="#282621" style="animation-delay:-3.02s"/>
      <rect x="801" y="81" width="38" height="38" fill="#332f29" style="animation-delay:-3.36s"/>
      <rect x="801" y="121" width="38" height="38" fill="#282621" style="animation-delay:-3.23s"/>
      <rect x="801" y="161" width="38" height="38" fill="#332f29" style="animation-delay:-3.32s"/>
      <rect x="801" y="201" width="38" height="38" fill="#332f29" style="animation-delay:-3.89s"/>
      <rect x="801" y="241" width="38" height="38" fill="#332f29" style="animation-delay:-4.34s"/>
      <rect x="801" y="281" width="38" height="38" fill="#332f29" style="animation-delay:-3.40s"/>
      <rect x="801" y="321" width="38" height="38" fill="#282621" style="animation-delay:-2.34s"/>
      <rect x="841" y="1" width="38" height="38" fill="#282621" style="animation-delay:-2.67s"/>
      <rect x="841" y="41" width="38" height="38" fill="#282621" style="animation-delay:-3.13s"/>
      <rect x="841" y="81" width="38" height="38" fill="#332f29" style="animation-delay:-3.56s"/>
      <rect x="841" y="121" width="38" height="38" fill="#332f29" style="animation-delay:-4.03s"/>
      <rect x="841" y="161" width="38" height="38" fill="#332f29" style="animation-delay:-4.20s"/>
      <rect x="841" y="201" width="38" height="38" fill="#332f29" style="animation-delay:-3.30s"/>
      <rect x="841" y="241" width="38" height="38" fill="#332f29" style="animation-delay:-3.88s"/>
      <rect x="841" y="281" width="38" height="38" fill="#332f29" style="animation-delay:-3.77s"/>
      <rect x="841" y="321" width="38" height="38" fill="#282621" style="animation-delay:-3.09s"/>
      <rect x="881" y="1" width="38" height="38" fill="#15150f" style="animation-delay:-0.82s"/>
      <rect x="881" y="41" width="38" height="38" fill="#282621" style="animation-delay:-2.31s"/>
      <rect x="881" y="81" width="38" height="38" fill="#282621" style="animation-delay:-2.96s"/>
      <rect x="881" y="121" width="38" height="38" fill="#332f29" style="animation-delay:-3.52s"/>
      <rect x="881" y="161" width="38" height="38" fill="#332f29" style="animation-delay:-3.60s"/>
      <rect x="881" y="201" width="38" height="38" fill="#282621" style="animation-delay:-3.13s"/>
      <rect x="881" y="241" width="38" height="38" fill="#332f29" style="animation-delay:-3.37s"/>
      <rect x="881" y="281" width="38" height="38" fill="#332f29" style="animation-delay:-3.47s"/>
      <rect x="881" y="321" width="38" height="38" fill="#3e3a33" style="animation-delay:-4.59s"/>
      <rect x="921" y="1" width="38" height="38" fill="#15150f" style="animation-delay:-0.77s"/>
      <rect x="921" y="41" width="38" height="38" fill="#1e1d18" style="animation-delay:-1.71s"/>
      <rect x="921" y="81" width="38" height="38" fill="#282621" style="animation-delay:-3.17s"/>
      <rect x="921" y="121" width="38" height="38" fill="#332f29" style="animation-delay:-3.91s"/>
      <rect x="921" y="161" width="38" height="38" fill="#332f29" style="animation-delay:-3.59s"/>
      <rect x="921" y="201" width="38" height="38" fill="#282621" style="animation-delay:-3.10s"/>
      <rect x="921" y="241" width="38" height="38" fill="#332f29" style="animation-delay:-3.34s"/>
      <rect x="921" y="281" width="38" height="38" fill="#332f29" style="animation-delay:-3.72s"/>
      <rect x="921" y="321" width="38" height="38" fill="#332f29" style="animation-delay:-4.12s"/>
      <rect x="961" y="1" width="38" height="38" fill="#1e1d18" style="animation-delay:-1.38s"/>
      <rect x="961" y="41" width="38" height="38" fill="#1e1d18" style="animation-delay:-1.71s"/>
      <rect x="961" y="81" width="38" height="38" fill="#282621" style="animation-delay:-3.06s"/>
      <rect x="961" y="121" width="38" height="38" fill="#332f29" style="animation-delay:-3.88s"/>
      <rect x="961" y="161" width="38" height="38" fill="#332f29" style="animation-delay:-3.73s"/>
      <rect x="961" y="201" width="38" height="38" fill="#282621" style="animation-delay:-2.99s"/>
      <rect x="961" y="241" width="38" height="38" fill="#282621" style="animation-delay:-3.04s"/>
      <rect x="961" y="281" width="38" height="38" fill="#282621" style="animation-delay:-3.25s"/>
      <rect x="961" y="321" width="38" height="38" fill="#282621" style="animation-delay:-2.97s"/>
      <rect x="1001" y="1" width="38" height="38" fill="#1e1d18" style="animation-delay:-1.54s"/>
      <rect x="1001" y="41" width="38" height="38" fill="#1e1d18" style="animation-delay:-2.06s"/>
      <rect x="1001" y="81" width="38" height="38" fill="#332f29" style="animation-delay:-3.84s"/>
      <rect x="1001" y="121" width="38" height="38" fill="#332f29" style="animation-delay:-4.03s"/>
      <rect x="1001" y="161" width="38" height="38" fill="#282621" style="animation-delay:-3.20s"/>
      <rect x="1001" y="201" width="38" height="38" fill="#282621" style="animation-delay:-2.45s"/>
      <rect x="1001" y="241" width="38" height="38" fill="#1e1d18" style="animation-delay:-1.98s"/>
      <rect x="1001" y="281" width="38" height="38" fill="#1e1d18" style="animation-delay:-1.82s"/>
      <rect x="1001" y="321" width="38" height="38" fill="#1e1d18" style="animation-delay:-1.49s"/>
      <rect x="1041" y="1" width="38" height="38" fill="#1e1d18" style="animation-delay:-2.09s"/>
      <rect x="1041" y="41" width="38" height="38" fill="#282621" style="animation-delay:-2.55s"/>
      <rect x="1041" y="81" width="38" height="38" fill="#332f29" style="animation-delay:-4.20s"/>
      <rect x="1041" y="121" width="38" height="38" fill="#332f29" style="animation-delay:-4.33s"/>
      <rect x="1041" y="161" width="38" height="38" fill="#332f29" style="animation-delay:-3.45s"/>
      <rect x="1041" y="201" width="38" height="38" fill="#282621" style="animation-delay:-2.87s"/>
      <rect x="1041" y="241" width="38" height="38" fill="#1e1d18" style="animation-delay:-2.11s"/>
      <rect x="1041" y="281" width="38" height="38" fill="#1e1d18" style="animation-delay:-1.67s"/>
      <rect x="1041" y="321" width="38" height="38" fill="#1e1d18" style="animation-delay:-2.00s"/>
      <rect x="1081" y="1" width="38" height="38" fill="#1e1d18" style="animation-delay:-1.81s"/>
      <rect x="1081" y="41" width="38" height="38" fill="#282621" style="animation-delay:-2.36s"/>
      <rect x="1081" y="81" width="38" height="38" fill="#332f29" style="animation-delay:-3.82s"/>
      <rect x="1081" y="121" width="38" height="38" fill="#332f29" style="animation-delay:-4.30s"/>
      <rect x="1081" y="161" width="38" height="38" fill="#282621" style="animation-delay:-3.27s"/>
      <rect x="1081" y="201" width="38" height="38" fill="#282621" style="animation-delay:-3.07s"/>
      <rect x="1081" y="241" width="38" height="38" fill="#1e1d18" style="animation-delay:-2.09s"/>
      <rect x="1081" y="281" width="38" height="38" fill="#1e1d18" style="animation-delay:-1.90s"/>
      <rect x="1081" y="321" width="38" height="38" fill="#282621" style="animation-delay:-2.30s"/>
      <rect x="1121" y="1" width="38" height="38" fill="#15150f" style="animation-delay:-0.98s"/>
      <rect x="1121" y="41" width="38" height="38" fill="#1e1d18" style="animation-delay:-1.86s"/>
      <rect x="1121" y="81" width="38" height="38" fill="#282621" style="animation-delay:-3.18s"/>
      <rect x="1121" y="121" width="38" height="38" fill="#332f29" style="animation-delay:-4.15s"/>
      <rect x="1121" y="161" width="38" height="38" fill="#332f29" style="animation-delay:-3.55s"/>
      <rect x="1121" y="201" width="38" height="38" fill="#332f29" style="animation-delay:-3.35s"/>
      <rect x="1121" y="241" width="38" height="38" fill="#282621" style="animation-delay:-2.98s"/>
      <rect x="1121" y="281" width="38" height="38" fill="#282621" style="animation-delay:-2.79s"/>
      <rect x="1121" y="321" width="38" height="38" fill="#282621" style="animation-delay:-2.75s"/>
      <rect x="1161" y="1" width="38" height="38" fill="#15150f" style="animation-delay:-0.57s"/>
      <rect x="1161" y="41" width="38" height="38" fill="#1e1d18" style="animation-delay:-2.07s"/>
      <rect x="1161" y="81" width="38" height="38" fill="#332f29" style="animation-delay:-3.89s"/>
      <rect x="1161" y="121" width="38" height="38" fill="#332f29" style="animation-delay:-4.23s"/>
      <rect x="1161" y="161" width="38" height="38" fill="#282621" style="animation-delay:-2.94s"/>
      <rect x="1161" y="201" width="38" height="38" fill="#282621" style="animation-delay:-3.00s"/>
      <rect x="1161" y="241" width="38" height="38" fill="#282621" style="animation-delay:-2.47s"/>
      <rect x="1161" y="281" width="38" height="38" fill="#282621" style="animation-delay:-2.43s"/>
      <rect x="1161" y="321" width="38" height="38" fill="#282621" style="animation-delay:-2.36s"/>
      <rect x="1201" y="1" width="38" height="38" fill="#1e1d18" style="animation-delay:-1.39s"/>
      <rect x="1201" y="41" width="38" height="38" fill="#282621" style="animation-delay:-2.29s"/>
      <rect x="1201" y="81" width="38" height="38" fill="#332f29" style="animation-delay:-3.68s"/>
      <rect x="1201" y="121" width="38" height="38" fill="#332f29" style="animation-delay:-3.79s"/>
      <rect x="1201" y="161" width="38" height="38" fill="#282621" style="animation-delay:-3.10s"/>
      <rect x="1201" y="201" width="38" height="38" fill="#1e1d18" style="animation-delay:-2.17s"/>
      <rect x="1201" y="241" width="38" height="38" fill="#1e1d18" style="animation-delay:-1.66s"/>
      <rect x="1201" y="281" width="38" height="38" fill="#1e1d18" style="animation-delay:-2.07s"/>
      <rect x="1201" y="321" width="38" height="38" fill="#282621" style="animation-delay:-2.59s"/>
      <rect x="1241" y="1" width="38" height="38" fill="#1e1d18" style="animation-delay:-2.20s"/>
      <rect x="1241" y="41" width="38" height="38" fill="#282621" style="animation-delay:-2.75s"/>
      <rect x="1241" y="81" width="38" height="38" fill="#282621" style="animation-delay:-2.96s"/>
      <rect x="1241" y="121" width="38" height="38" fill="#332f29" style="animation-delay:-3.36s"/>
      <rect x="1241" y="161" width="38" height="38" fill="#282621" style="animation-delay:-3.00s"/>
      <rect x="1241" y="201" width="38" height="38" fill="#1e1d18" style="animation-delay:-1.35s"/>
      <rect x="1241" y="241" width="38" height="38" fill="#1e1d18" style="animation-delay:-1.44s"/>
      <rect x="1241" y="281" width="38" height="38" fill="#282621" style="animation-delay:-2.22s"/>
      <rect x="1241" y="321" width="38" height="38" fill="#282621" style="animation-delay:-3.23s"/>
  </g>
  <rect width="1280" height="56" fill="url(#fadeTop)"/>
  <rect y="324" width="1280" height="56" fill="url(#fadeBottom)"/>

  <text class="mono kicker" x="64" y="76" fill="#6f6f6b" font-size="13" letter-spacing="2.6">REDDUCK LIMITED  //  LARNACA &#183; KYIV  //  SHIPPING ON-CHAIN SINCE 2020</text>

  <g transform="translate(64 104) scale(3.4)">
    <g class="duck">
      <path d="M48.3324 5.89415V0H36.4576V11.7883H29.6971H17.8156H11.8816V5.89415H0V11.7883H5.94078V23.5699H17.8156H29.6971H41.5787V11.7883H48.3324H60.2139V5.89415H48.3324Z" fill="#ed4a38"/>
    </g>
    <g class="wordmark">
      <path d="M71.3568 23.4691V8.71691H74.6286V23.4691H71.3568ZM79.0317 11.7278C77.8056 11.7278 76.7624 12.0706 75.9089 12.7628C75.0554 13.4484 74.6286 14.2885 74.6286 15.2697H73.1993C73.1993 13.4013 73.748 11.8018 74.8522 10.4778C75.9495 9.14704 77.2976 8.4884 78.8827 8.4884H79.7159V11.7346H79.0317V11.7278Z" fill="#ffffff"/>
      <path d="M84.3222 17.5077C84.5186 18.5898 85.0267 19.4433 85.8396 20.0616C86.6524 20.68 87.6347 20.9891 88.7862 20.9891C89.6601 20.9891 90.4526 20.7942 91.1775 20.3977C91.9023 20.0079 92.4442 19.4635 92.7964 18.778L95.7973 19.9272C95.1606 21.1639 94.219 22.1518 92.959 22.8911C91.6991 23.6304 90.3172 24 88.8133 24C86.5712 24 84.688 23.2473 83.1638 21.7418C81.6397 20.2364 80.8742 18.3344 80.8742 16.0359C80.8742 13.7374 81.6194 11.8891 83.1029 10.3837C84.5864 8.87822 86.4221 8.12549 88.6034 8.12549C90.7846 8.12549 92.6677 8.8715 94.1919 10.3702C95.716 11.8623 96.4815 13.7306 96.4815 15.9754C96.4815 16.4055 96.4137 16.9163 96.2715 17.5077H84.3154H84.3222ZM93.1555 14.5842C92.9929 13.5223 92.5052 12.6822 91.6855 12.0639C90.8659 11.4456 89.8633 11.1364 88.6982 11.1364C87.5331 11.1364 86.605 11.4388 85.8125 12.0504C85.0199 12.662 84.5254 13.5089 84.3222 14.5842H93.1555Z" fill="#ffffff"/>
      <path d="M110.849 10.3837C112.197 11.8891 112.868 13.7844 112.868 16.0627C112.868 18.3411 112.19 20.2364 110.849 21.7418C109.501 23.2473 107.835 24 105.85 24C103.865 24 102.056 23.2406 100.661 21.7284C99.2656 20.2162 98.5679 18.3277 98.5679 16.0627C98.5679 13.7978 99.2656 11.916 100.661 10.3971C102.056 8.88493 103.791 8.12548 105.85 8.12548C107.909 8.12548 109.494 8.87821 110.849 10.3837ZM110.178 19.5307C111.12 18.6167 111.587 17.4607 111.587 16.0627C111.587 14.6648 111.113 13.5088 110.178 12.5948C109.244 11.6808 108.085 11.2238 106.717 11.2238C105.349 11.2238 104.197 11.6808 103.255 12.5948C102.314 13.5088 101.846 14.6648 101.846 16.0627C101.846 17.4607 102.314 18.6167 103.255 19.5307C104.197 20.4447 105.349 20.9017 106.717 20.9017C108.085 20.9017 109.237 20.4447 110.178 19.5307ZM114.859 23.4691H111.587V2.81604H114.859V23.4691Z" fill="#ffffff"/>
      <path d="M126.131 23.4691H118.131V2.81604H126.131C128.983 2.81604 131.401 3.78384 133.386 5.71943C135.371 7.65502 136.36 10.1216 136.36 13.1123C136.36 16.1031 135.371 18.5763 133.386 20.5321C131.401 22.4878 128.983 23.4691 126.131 23.4691ZM125.833 5.94122H121.403V20.3372H125.833C127.859 20.3372 129.572 19.6584 130.975 18.3008C132.384 16.9432 133.088 15.2159 133.088 13.1056C133.088 10.9953 132.384 9.30162 130.975 7.95746C129.566 6.6133 127.852 5.93449 125.833 5.93449V5.94122Z" fill="#ffffff"/>
      <path d="M138.887 8.71692H141.86V20.5187H147.808V17.5682H150.782V8.71692H153.756V23.4691H150.782V20.5187H147.808V23.4691H141.86V20.5187H138.887V8.71692Z" fill="#ffffff"/>
      <path d="M160.922 12.5814C160.008 13.4887 159.554 14.6447 159.554 16.0628C159.554 17.4808 160.008 18.6368 160.922 19.5441C161.837 20.4514 162.955 20.9017 164.282 20.9017C165.231 20.9017 166.098 20.6665 166.883 20.196C167.669 19.7256 168.259 19.0871 168.651 18.2806L171.652 19.6382C170.975 20.9757 169.979 22.0376 168.665 22.8239C167.344 23.6102 165.888 24.0067 164.282 24.0067C162.06 24.0067 160.17 23.2607 158.619 21.762C157.061 20.27 156.282 18.368 156.282 16.0695C156.282 13.771 157.061 11.869 158.619 10.377C160.177 8.88493 162.06 8.1322 164.282 8.1322C165.928 8.1322 167.412 8.53545 168.74 9.34195C170.067 10.1484 171.056 11.2507 171.713 12.6486L168.712 14.0331C168.333 13.1459 167.751 12.4604 166.958 11.9698C166.165 11.4792 165.271 11.2305 164.282 11.2305C162.955 11.2305 161.83 11.6808 160.922 12.5881V12.5814Z" fill="#ffffff"/>
      <path d="M174.24 2.81604H177.214V14.6178H180.188V17.5682H183.161V20.5186H180.188V17.5682H177.214V23.4691H174.24V2.81604ZM180.188 11.6673H183.161V14.6178H180.188V11.6673ZM183.161 8.71691H186.135V11.6673H183.161V8.71691ZM183.161 20.5186H186.135V23.4691H183.161V20.5186Z" fill="#ffffff"/>
    </g>
  </g>

  <rect class="rule" x="64" y="204" width="632" height="2" fill="#ed4a38" style="transform-origin:64px 205px"/>

  <g clip-path="url(#typeClip)">
    <text class="mono" x="64" y="254" fill="#e0deda" font-size="23" letter-spacing=".4"><tspan fill="#ed4a38">&#8250;</tspan> blockchain consulting &amp; development partner</text>
  </g>
  <rect class="caret" x="706" y="234" width="12" height="24" fill="#ed4a38"/>

  <g class="mono" font-size="13" letter-spacing="1.6">
    <g class="chip c1"><rect x="64" y="292" width="74" height="30" fill="none" stroke="#3a3a37"/><text x="102" y="312" fill="#c5c4c0" text-anchor="middle">EVM</text></g><g class="chip c2"><rect x="146" y="292" width="102" height="30" fill="none" stroke="#3a3a37"/><text x="198" y="312" fill="#c5c4c0" text-anchor="middle">SOLANA</text></g><g class="chip c3"><rect x="256" y="292" width="112" height="30" fill="none" stroke="#3a3a37"/><text x="313" y="312" fill="#c5c4c0" text-anchor="middle">BITCOIN</text></g><rect class="chip c4" x="384" y="296" width="1" height="22" fill="#3a3a37"/><g class="chip c5"><rect x="401" y="292" width="65" height="30" fill="none" stroke="#3a3a37"/><text x="434" y="312" fill="#c5c4c0" text-anchor="middle">ZK</text></g><g class="chip c6"><rect x="474" y="292" width="74" height="30" fill="none" stroke="#3a3a37"/><text x="512" y="312" fill="#c5c4c0" text-anchor="middle">RWA</text></g><g class="chip c7"><rect x="556" y="292" width="102" height="30" fill="none" stroke="#3a3a37"/><text x="608" y="312" fill="#c5c4c0" text-anchor="middle">GAMEFI</text></g>
  </g>
</svg>
